<svg xmlns="http://www.w3.org/2000/svg" xmlns:xlink="http://www.w3.org/1999/xlink" width="400" zoomAndPan="magnify" viewBox="0 0 300 74.999997" height="100" preserveAspectRatio="xMidYMid meet" version="1.0"><defs><g/><clipPath id="7af5fe1c0f"><path d="M 22.0625 11 L 55 11 L 55 62 L 22.0625 62 Z M 22.0625 11 " clip-rule="nonzero"/></clipPath><clipPath id="6d98f60854"><path d="M 57 6.550781 L 136 6.550781 L 136 68.800781 L 57 68.800781 Z M 57 6.550781 " clip-rule="nonzero"/></clipPath><clipPath id="abd9504090"><path d="M 218.050781 31.566406 L 230.800781 31.566406 L 230.800781 43.566406 L 218.050781 43.566406 Z M 218.050781 31.566406 " clip-rule="nonzero"/></clipPath></defs><path fill="#f1a75a" d="M 132.078125 24.332031 C 130.507812 27.855469 129.542969 32.53125 129.542969 37.683594 C 129.542969 42.828125 130.507812 47.503906 132.074219 51.023438 C 132.160156 51.210938 132.238281 51.40625 132.324219 51.585938 C 133.539062 54.109375 135.078125 55.949219 136.800781 56.851562 C 137.566406 57.253906 138.363281 57.488281 139.1875 57.488281 L 150.210938 57.488281 C 149.328125 57.488281 148.480469 57.226562 147.671875 56.769531 C 143.578125 54.476562 140.566406 46.8125 140.566406 37.683594 C 140.566406 28.550781 143.578125 20.882812 147.671875 18.59375 C 148.484375 18.140625 149.332031 17.875 150.210938 17.875 L 139.191406 17.875 C 136.371094 17.875 133.84375 20.371094 132.078125 24.332031 Z M 132.078125 24.332031 " fill-opacity="1" fill-rule="nonzero"/><g clip-path="url(#7af5fe1c0f)"><path fill="#f1a75a" d="M 29.832031 52.304688 L 30.046875 52.304688 C 28.820312 48.785156 28.089844 44.484375 28.089844 39.828125 C 28.089844 37.339844 28.304688 34.960938 28.683594 32.742188 C 28.589844 33.984375 28.527344 35.25 28.527344 36.546875 C 28.527344 42.535156 29.5625 48.023438 31.285156 52.304688 C 33.496094 57.800781 36.84375 61.304688 40.585938 61.304688 L 54.359375 61.304688 C 53.050781 61.304688 51.792969 60.863281 50.613281 60.070312 C 47.648438 58.074219 45.1875 53.796875 43.734375 48.238281 C 42.824219 44.753906 42.304688 40.777344 42.304688 36.546875 C 42.304688 32.316406 42.824219 28.335938 43.734375 24.855469 C 44.375 22.40625 45.21875 20.21875 46.207031 18.347656 C 48.355469 14.289062 51.214844 11.785156 54.363281 11.785156 L 40.589844 11.785156 C 36.847656 11.785156 33.5 15.289062 31.289062 20.789062 L 29.835938 20.789062 C 25.597656 20.789062 22.160156 27.84375 22.160156 36.542969 C 22.15625 45.246094 25.589844 52.304688 29.832031 52.304688 Z M 29.832031 52.304688 " fill-opacity="1" fill-rule="nonzero"/></g><path fill="#f1a75a" d="M 52.316406 31.09375 C 51.210938 32.425781 50.460938 34.863281 50.460938 37.683594 C 50.460938 40.289062 51.097656 42.585938 52.066406 43.972656 C 52.671875 44.839844 53.40625 45.355469 54.199219 45.355469 L 58.46875 45.355469 C 56.40625 45.355469 54.730469 41.917969 54.730469 37.683594 C 54.730469 33.445312 56.402344 30.007812 58.46875 30.007812 L 54.199219 30.007812 C 53.507812 30.007812 52.871094 30.417969 52.316406 31.09375 Z M 52.316406 31.09375 " fill-opacity="1" fill-rule="nonzero"/><g clip-path="url(#6d98f60854)"><path fill="#f1a75a" d="M 57.675781 35.007812 C 57.375 35.734375 57.191406 36.664062 57.191406 37.691406 C 57.191406 38.714844 57.375 39.640625 57.675781 40.371094 C 57.773438 40.613281 57.886719 40.832031 58.007812 41.027344 C 58.238281 41.382812 58.503906 41.648438 58.796875 41.78125 C 58.9375 41.839844 59.082031 41.878906 59.230469 41.878906 L 103.402344 41.878906 C 104.402344 57.074219 110.726562 68.800781 118.402344 68.800781 L 135.714844 68.800781 C 127.347656 68.800781 120.558594 54.867188 120.558594 37.683594 C 120.558594 20.496094 127.347656 6.5625 135.714844 6.5625 L 118.402344 6.5625 C 110.722656 6.5625 104.394531 18.296875 103.402344 33.503906 L 59.230469 33.503906 C 58.601562 33.5 58.050781 34.09375 57.675781 35.007812 Z M 57.675781 35.007812 " fill-opacity="1" fill-rule="nonzero"/></g><path fill="#f1a75a" d="M 147.613281 33.5 C 146.488281 33.5 145.578125 35.371094 145.578125 37.683594 C 145.578125 39.992188 146.488281 41.863281 147.613281 41.863281 L 156.972656 41.863281 C 155.847656 41.863281 154.933594 39.992188 154.933594 37.683594 C 154.933594 35.371094 155.847656 33.5 156.972656 33.5 Z M 147.613281 33.5 " fill-opacity="1" fill-rule="nonzero"/><g clip-path="url(#abd9504090)"><path fill="#f1a75a" d="M 227.601562 39.222656 L 228.347656 43.5625 L 224.425781 41.515625 L 220.5 43.5625 L 221.246094 39.222656 L 218.070312 36.148438 L 222.457031 35.515625 L 224.425781 31.566406 L 226.386719 35.515625 L 230.777344 36.148438 Z M 227.601562 39.222656 " fill-opacity="1" fill-rule="nonzero"/></g><g fill="#ffffff" fill-opacity="1"><g transform="translate(167.164318, 28.908796)"><g><path d="M 9.375 0.417969 C 12.417969 0.417969 14.867188 -0.710938 16.3125 -2.683594 C 16.414062 -2.808594 16.453125 -2.960938 16.453125 -3.140625 L 16.453125 -8.289062 C 16.453125 -8.5625 16.3125 -8.707031 16.039062 -8.707031 L 9.914062 -8.707031 C 9.640625 -8.707031 9.5 -8.5625 9.5 -8.289062 L 9.5 -5.785156 C 9.5 -5.523438 9.640625 -5.371094 9.914062 -5.371094 L 12.660156 -5.371094 L 12.660156 -4.515625 C 11.910156 -3.640625 10.769531 -3.121094 9.375 -3.121094 C 6.792969 -3.121094 5.085938 -4.910156 5.085938 -7.808594 C 5.085938 -10.578125 6.792969 -12.285156 9.375 -12.285156 C 10.851562 -12.285156 12.039062 -11.726562 12.8125 -10.789062 C 12.976562 -10.578125 13.160156 -10.535156 13.371094 -10.6875 L 16.117188 -12.519531 C 16.351562 -12.679688 16.394531 -12.875 16.21875 -13.078125 C 14.726562 -14.929688 12.324219 -16.039062 9.375 -16.039062 C 4.292969 -16.039062 0.914062 -12.832031 0.914062 -7.808594 C 0.914062 -2.785156 4.292969 0.417969 9.375 0.417969 Z M 9.375 0.417969 "/></g></g></g><g fill="#ffffff" fill-opacity="1"><g transform="translate(184.782951, 28.908796)"><g><path d="M 10.039062 0 C 10.3125 0 10.453125 -0.140625 10.453125 -0.417969 L 10.453125 -5.980469 L 16.535156 -15.121094 C 16.730469 -15.386719 16.597656 -15.621094 16.261719 -15.621094 L 12.222656 -15.621094 C 12 -15.621094 11.828125 -15.519531 11.726562 -15.324219 L 8.390625 -9.722656 L 5.105469 -15.324219 C 5.003906 -15.519531 4.832031 -15.621094 4.605469 -15.621094 L 0.558594 -15.621094 C 0.234375 -15.621094 0.101562 -15.386719 0.292969 -15.121094 L 6.285156 -5.980469 L 6.285156 -0.417969 C 6.285156 -0.140625 6.4375 0 6.703125 0 Z M 10.039062 0 "/></g></g></g><g fill="#ffffff" fill-opacity="1"><g transform="translate(201.608592, 28.908796)"><g><path d="M 5.207031 0 C 5.480469 0 5.625 -0.140625 5.625 -0.417969 L 5.625 -6.019531 L 9.140625 -1.910156 C 9.335938 -1.6875 9.539062 -1.6875 9.722656 -1.910156 L 13.292969 -6.0625 L 13.292969 -0.417969 C 13.292969 -0.140625 13.433594 0 13.707031 0 L 16.933594 0 C 17.207031 0 17.347656 -0.140625 17.347656 -0.417969 L 17.347656 -15.265625 C 17.347656 -16.039062 16.808594 -16.21875 16.332031 -15.621094 L 9.4375 -6.996094 L 2.582031 -15.621094 C 2.085938 -16.25 1.566406 -16.039062 1.566406 -15.265625 L 1.566406 -0.417969 C 1.566406 -0.140625 1.707031 0 1.984375 0 Z M 5.207031 0 "/></g></g></g><g fill="#ffffff" fill-opacity="1"><g transform="translate(220.518376, 28.908796)"><g><path d="M 10.414062 0 C 10.6875 0 10.832031 -0.140625 10.832031 -0.417969 L 10.832031 -3.121094 C 10.832031 -3.398438 10.6875 -3.539062 10.414062 -3.539062 L 5.707031 -3.539062 L 5.707031 -15.203125 C 5.707031 -15.476562 5.5625 -15.621094 5.289062 -15.621094 L 1.960938 -15.621094 C 1.6875 -15.621094 1.546875 -15.476562 1.546875 -15.203125 L 1.546875 -0.417969 C 1.546875 -0.140625 1.6875 0 1.960938 0 Z M 10.414062 0 "/></g></g></g><g fill="#ffffff" fill-opacity="1"><g transform="translate(231.782914, 28.908796)"><g><path d="M 8.601562 -15.621094 C 8.289062 -16.261719 7.789062 -16.261719 7.472656 -15.621094 L 0.316406 -0.5 C 0.183594 -0.203125 0.316406 0 0.621094 0 L 4.292969 0 C 4.515625 0 4.6875 -0.121094 4.769531 -0.335938 L 5.277344 -1.648438 L 10.800781 -1.648438 L 11.308594 -0.335938 C 11.390625 -0.121094 11.5625 0 11.785156 0 L 15.457031 0 C 15.761719 0 15.894531 -0.203125 15.761719 -0.5 Z M 8.042969 -8.695312 L 9.578125 -4.769531 L 6.5 -4.769531 Z M 8.042969 -8.695312 "/></g></g></g><g fill="#ffffff" fill-opacity="1"><g transform="translate(247.876563, 28.908796)"><g><path d="M 5.167969 0 C 5.441406 0 5.582031 -0.140625 5.582031 -0.417969 L 5.582031 -7.871094 L 14.226562 0 C 14.878906 0.601562 15.347656 0.335938 15.347656 -0.375 L 15.347656 -15.203125 C 15.347656 -15.476562 15.203125 -15.621094 14.929688 -15.621094 L 11.746094 -15.621094 C 11.472656 -15.621094 11.328125 -15.476562 11.328125 -15.203125 L 11.328125 -8.011719 L 2.582031 -15.722656 C 2.003906 -16.230469 1.566406 -15.976562 1.566406 -15.265625 L 1.566406 -0.417969 C 1.566406 -0.140625 1.707031 0 1.984375 0 Z M 5.167969 0 "/></g></g></g><g fill="#ffffff" fill-opacity="1"><g transform="translate(264.783537, 28.908796)"><g><path d="M 7.191406 0 C 13.117188 0 15.703125 -2.917969 15.703125 -7.789062 C 15.703125 -12.742188 13.039062 -15.621094 7.191406 -15.621094 L 1.960938 -15.621094 C 1.6875 -15.621094 1.546875 -15.476562 1.546875 -15.203125 L 1.546875 -0.417969 C 1.546875 -0.140625 1.6875 0 1.960938 0 Z M 5.746094 -12.082031 L 7.210938 -12.082031 C 10.140625 -12.082031 11.542969 -10.554688 11.542969 -7.851562 C 11.542969 -5.144531 10.140625 -3.539062 7.210938 -3.539062 L 5.746094 -3.539062 Z M 5.746094 -12.082031 "/></g></g></g><g fill="#ffffff" fill-opacity="1"><g transform="translate(224.297751, 58.027997)"><g/></g></g><g fill="#f1a75a" fill-opacity="1"><g transform="translate(194.555099, 57.106679)"><g><path d="M 4.53125 -0.953125 C 4.445312 -0.941406 4.390625 -0.96875 4.359375 -1.03125 L 3.875 -2.03125 C 3.863281 -2.050781 3.847656 -2.054688 3.828125 -2.046875 L 1.828125 -1.625 C 1.796875 -1.625 1.773438 -1.609375 1.765625 -1.578125 L 1.75 -0.484375 C 1.75 -0.410156 1.710938 -0.363281 1.640625 -0.34375 L 0.34375 -0.078125 C 0.25 -0.0546875 0.203125 -0.09375 0.203125 -0.1875 L 0.59375 -7.828125 C 0.59375 -7.910156 0.632812 -7.957031 0.71875 -7.96875 L 2.265625 -8.296875 C 2.335938 -8.316406 2.394531 -8.289062 2.4375 -8.21875 L 5.90625 -1.390625 L 5.9375 -1.359375 C 5.945312 -1.296875 5.910156 -1.253906 5.828125 -1.234375 Z M 1.796875 -2.921875 C 1.785156 -2.898438 1.789062 -2.882812 1.8125 -2.875 C 1.832031 -2.875 1.851562 -2.875 1.875 -2.875 L 3.28125 -3.171875 C 3.289062 -3.171875 3.300781 -3.175781 3.3125 -3.1875 C 3.320312 -3.207031 3.328125 -3.226562 3.328125 -3.25 L 1.921875 -6.1875 C 1.910156 -6.21875 1.894531 -6.226562 1.875 -6.21875 C 1.863281 -6.21875 1.859375 -6.203125 1.859375 -6.171875 Z M 1.796875 -2.921875 "/></g></g></g><g fill="#f1a75a" fill-opacity="1"><g transform="translate(203.298508, 55.34863)"><g><path d="M 2.203125 -8.0625 C 2.628906 -8.132812 3.023438 -8.09375 3.390625 -7.9375 C 3.753906 -7.789062 4.050781 -7.550781 4.28125 -7.21875 C 4.519531 -6.894531 4.671875 -6.503906 4.734375 -6.046875 C 4.796875 -5.609375 4.757812 -5.203125 4.625 -4.828125 C 4.5 -4.460938 4.28125 -4.160156 3.96875 -3.921875 C 3.65625 -3.691406 3.285156 -3.539062 2.859375 -3.46875 L 1.6875 -3.3125 C 1.65625 -3.300781 1.644531 -3.273438 1.65625 -3.234375 L 2.0625 -0.421875 C 2.0625 -0.390625 2.050781 -0.359375 2.03125 -0.328125 C 2.007812 -0.296875 1.976562 -0.28125 1.9375 -0.28125 L 0.671875 -0.09375 C 0.640625 -0.09375 0.609375 -0.101562 0.578125 -0.125 C 0.546875 -0.144531 0.53125 -0.171875 0.53125 -0.203125 L -0.53125 -7.53125 C -0.539062 -7.570312 -0.53125 -7.609375 -0.5 -7.640625 C -0.476562 -7.671875 -0.453125 -7.6875 -0.421875 -7.6875 Z M 2.4375 -4.640625 C 2.71875 -4.679688 2.925781 -4.804688 3.0625 -5.015625 C 3.207031 -5.234375 3.257812 -5.5 3.21875 -5.8125 C 3.164062 -6.125 3.039062 -6.359375 2.84375 -6.515625 C 2.65625 -6.679688 2.421875 -6.742188 2.140625 -6.703125 L 1.21875 -6.578125 C 1.1875 -6.566406 1.171875 -6.546875 1.171875 -6.515625 L 1.453125 -4.5625 C 1.460938 -4.519531 1.484375 -4.503906 1.515625 -4.515625 Z M 2.4375 -4.640625 "/></g></g></g><g fill="#f1a75a" fill-opacity="1"><g transform="translate(211.645395, 54.22459)"><g><path d="M 2.703125 -7.90625 C 3.140625 -7.9375 3.535156 -7.867188 3.890625 -7.703125 C 4.242188 -7.546875 4.523438 -7.296875 4.734375 -6.953125 C 4.953125 -6.609375 5.082031 -6.207031 5.125 -5.75 C 5.15625 -5.300781 5.09375 -4.894531 4.9375 -4.53125 C 4.78125 -4.164062 4.535156 -3.875 4.203125 -3.65625 C 3.878906 -3.4375 3.5 -3.3125 3.0625 -3.28125 L 1.890625 -3.1875 C 1.859375 -3.1875 1.847656 -3.164062 1.859375 -3.125 L 2.078125 -0.296875 C 2.085938 -0.265625 2.078125 -0.234375 2.046875 -0.203125 C 2.023438 -0.171875 1.992188 -0.15625 1.953125 -0.15625 L 0.671875 -0.046875 C 0.640625 -0.046875 0.609375 -0.0546875 0.578125 -0.078125 C 0.554688 -0.109375 0.539062 -0.140625 0.53125 -0.171875 L -0.0625 -7.546875 C -0.0625 -7.585938 -0.046875 -7.617188 -0.015625 -7.640625 C 0.00390625 -7.671875 0.03125 -7.6875 0.0625 -7.6875 Z M 2.71875 -4.484375 C 3 -4.503906 3.21875 -4.613281 3.375 -4.8125 C 3.53125 -5.019531 3.597656 -5.28125 3.578125 -5.59375 C 3.546875 -5.914062 3.4375 -6.160156 3.25 -6.328125 C 3.070312 -6.503906 2.84375 -6.582031 2.5625 -6.5625 L 1.640625 -6.484375 C 1.609375 -6.484375 1.59375 -6.46875 1.59375 -6.4375 L 1.75 -4.46875 C 1.75 -4.425781 1.765625 -4.40625 1.796875 -4.40625 Z M 2.71875 -4.484375 "/></g></g></g><g fill="#f1a75a" fill-opacity="1"><g transform="translate(220.04008, 53.626285)"><g><path d="M 4.625 -0.0625 C 4.539062 -0.0625 4.488281 -0.0976562 4.46875 -0.171875 L 4.203125 -1.25 C 4.191406 -1.269531 4.175781 -1.28125 4.15625 -1.28125 L 2.109375 -1.25 C 2.078125 -1.25 2.054688 -1.238281 2.046875 -1.21875 L 1.8125 -0.140625 C 1.789062 -0.0664062 1.742188 -0.03125 1.671875 -0.03125 L 0.34375 0 C 0.25 0 0.210938 -0.046875 0.234375 -0.140625 L 2.09375 -7.578125 C 2.113281 -7.648438 2.164062 -7.6875 2.25 -7.6875 L 3.84375 -7.71875 C 3.914062 -7.71875 3.960938 -7.679688 3.984375 -7.609375 L 6.0625 -0.234375 L 6.078125 -0.1875 C 6.078125 -0.125 6.035156 -0.09375 5.953125 -0.09375 Z M 2.328125 -2.515625 C 2.316406 -2.492188 2.316406 -2.476562 2.328125 -2.46875 C 2.347656 -2.457031 2.367188 -2.453125 2.390625 -2.453125 L 3.828125 -2.484375 C 3.835938 -2.484375 3.847656 -2.488281 3.859375 -2.5 C 3.878906 -2.507812 3.890625 -2.523438 3.890625 -2.546875 L 3.078125 -5.703125 C 3.078125 -5.734375 3.066406 -5.75 3.046875 -5.75 C 3.035156 -5.75 3.023438 -5.734375 3.015625 -5.703125 Z M 2.328125 -2.515625 "/></g></g></g><g fill="#f1a75a" fill-opacity="1"><g transform="translate(228.956826, 53.584329)"><g><path d="M 4.171875 0.21875 C 4.097656 0.207031 4.050781 0.164062 4.03125 0.09375 L 3.078125 -2.984375 C 3.054688 -3.015625 3.035156 -3.03125 3.015625 -3.03125 L 2.328125 -3.0625 C 2.296875 -3.0625 2.28125 -3.039062 2.28125 -3 L 2.125 -0.015625 C 2.125 0.015625 2.109375 0.0390625 2.078125 0.0625 C 2.054688 0.09375 2.023438 0.101562 1.984375 0.09375 L 0.703125 0.03125 C 0.671875 0.03125 0.640625 0.0195312 0.609375 0 C 0.585938 -0.03125 0.578125 -0.0625 0.578125 -0.09375 L 0.953125 -7.484375 C 0.960938 -7.515625 0.976562 -7.539062 1 -7.5625 C 1.03125 -7.59375 1.0625 -7.609375 1.09375 -7.609375 L 3.765625 -7.46875 C 4.203125 -7.445312 4.582031 -7.332031 4.90625 -7.125 C 5.226562 -6.914062 5.472656 -6.628906 5.640625 -6.265625 C 5.804688 -5.910156 5.875 -5.507812 5.84375 -5.0625 C 5.820312 -4.59375 5.703125 -4.191406 5.484375 -3.859375 C 5.265625 -3.535156 4.960938 -3.300781 4.578125 -3.15625 C 4.546875 -3.132812 4.535156 -3.109375 4.546875 -3.078125 L 5.640625 0.125 C 5.628906 0.144531 5.625 0.164062 5.625 0.1875 C 5.625 0.25 5.585938 0.28125 5.515625 0.28125 Z M 2.5 -6.203125 C 2.46875 -6.203125 2.445312 -6.1875 2.4375 -6.15625 L 2.34375 -4.296875 C 2.34375 -4.265625 2.359375 -4.25 2.390625 -4.25 L 3.34375 -4.203125 C 3.613281 -4.191406 3.835938 -4.269531 4.015625 -4.4375 C 4.191406 -4.601562 4.285156 -4.835938 4.296875 -5.140625 C 4.316406 -5.441406 4.25 -5.679688 4.09375 -5.859375 C 3.9375 -6.046875 3.722656 -6.144531 3.453125 -6.15625 Z M 2.5 -6.203125 "/></g></g></g><g fill="#f1a75a" fill-opacity="1"><g transform="translate(237.495353, 54.10605)"><g><path d="M 5.9375 -5.828125 C 5.9375 -5.785156 5.921875 -5.753906 5.890625 -5.734375 C 5.859375 -5.710938 5.828125 -5.703125 5.796875 -5.703125 L 2.875 -6.03125 C 2.84375 -6.039062 2.828125 -6.03125 2.828125 -6 L 2.625 -4.3125 C 2.625 -4.269531 2.640625 -4.242188 2.671875 -4.234375 L 4.484375 -4.03125 C 4.523438 -4.019531 4.554688 -4 4.578125 -3.96875 C 4.597656 -3.945312 4.609375 -3.921875 4.609375 -3.890625 L 4.484375 -2.84375 C 4.484375 -2.800781 4.46875 -2.765625 4.4375 -2.734375 C 4.40625 -2.710938 4.367188 -2.707031 4.328125 -2.71875 L 2.515625 -2.921875 C 2.484375 -2.929688 2.46875 -2.921875 2.46875 -2.890625 L 2.265625 -1.125 C 2.265625 -1.09375 2.28125 -1.070312 2.3125 -1.0625 L 5.234375 -0.734375 C 5.265625 -0.734375 5.289062 -0.71875 5.3125 -0.6875 C 5.332031 -0.65625 5.34375 -0.625 5.34375 -0.59375 L 5.21875 0.46875 C 5.21875 0.5 5.203125 0.523438 5.171875 0.546875 C 5.140625 0.566406 5.109375 0.578125 5.078125 0.578125 L 0.703125 0.078125 C 0.671875 0.078125 0.644531 0.0625 0.625 0.03125 C 0.601562 0 0.59375 -0.03125 0.59375 -0.0625 L 1.4375 -7.421875 C 1.4375 -7.453125 1.453125 -7.476562 1.484375 -7.5 C 1.515625 -7.519531 1.546875 -7.53125 1.578125 -7.53125 L 5.953125 -7.03125 C 5.984375 -7.03125 6.007812 -7.015625 6.03125 -6.984375 C 6.050781 -6.953125 6.0625 -6.921875 6.0625 -6.890625 Z M 5.9375 -5.828125 "/></g></g></g><g fill="#f1a75a" fill-opacity="1"><g transform="translate(245.643245, 55.121117)"><g><path d="M 0.6875 0.125 C 0.65625 0.113281 0.628906 0.09375 0.609375 0.0625 C 0.585938 0.03125 0.578125 0 0.578125 -0.03125 L 1.875 -7.328125 C 1.882812 -7.359375 1.898438 -7.378906 1.921875 -7.390625 C 1.953125 -7.410156 1.984375 -7.414062 2.015625 -7.40625 L 3.28125 -7.1875 C 3.320312 -7.175781 3.351562 -7.15625 3.375 -7.125 C 3.40625 -7.101562 3.414062 -7.078125 3.40625 -7.046875 L 2.328125 -0.984375 C 2.328125 -0.953125 2.34375 -0.9375 2.375 -0.9375 L 5.265625 -0.421875 C 5.296875 -0.410156 5.320312 -0.390625 5.34375 -0.359375 C 5.363281 -0.335938 5.367188 -0.304688 5.359375 -0.265625 L 5.171875 0.78125 C 5.171875 0.8125 5.15625 0.835938 5.125 0.859375 C 5.09375 0.890625 5.0625 0.898438 5.03125 0.890625 Z M 0.6875 0.125 "/></g></g></g><g fill="#f1a75a" fill-opacity="1"><g transform="translate(253.62324, 56.639438)"><g/></g></g></svg>