<svg xmlns="http://www.w3.org/2000/svg" xmlns:xlink="http://www.w3.org/1999/xlink" width="1080" zoomAndPan="magnify" viewBox="0 0 810 809.999993" height="1080" preserveAspectRatio="xMidYMid meet" version="1.0"><defs><clipPath id="b637581558"><path d="M 19 0.75 L 802 0.75 L 802 646 L 19 646 Z M 19 0.75 " clip-rule="nonzero"/></clipPath></defs><g clip-path="url(#b637581558)"><path fill="#808080" d="M 462.960938 310.554688 C 507.605469 310.554688 551.566406 330.03125 589.109375 365.910156 C 599.039062 374.570312 599.710938 389.804688 590.636719 399.296875 C 581.527344 408.855469 566.296875 408.855469 557.234375 399.347656 C 526.589844 370.003906 494.402344 356.722656 462.960938 356.722656 C 431.566406 356.722656 399.433594 370.003906 368.792969 399.347656 C 364.394531 403.703125 358.355469 406.085938 352.144531 405.921875 C 331.46875 405.394531 321.808594 380.023438 336.976562 365.902344 C 374.460938 330.019531 418.359375 310.554688 462.960938 310.554688 Z M 559.140625 219.449219 C 577.597656 219.449219 592.601562 234.480469 592.601562 252.949219 C 592.601562 271.429688 577.585938 286.398438 559.140625 286.398438 C 540.691406 286.398438 525.738281 271.429688 525.738281 252.949219 C 525.738281 234.480469 540.691406 219.449219 559.140625 219.449219 Z M 366.886719 219.449219 C 385.34375 219.449219 400.289062 234.480469 400.289062 252.949219 C 400.289062 271.429688 385.335938 286.398438 366.886719 286.398438 C 348.378906 286.398438 333.425781 271.429688 333.425781 252.949219 C 333.425781 234.480469 348.371094 219.449219 366.886719 219.449219 Z M 57.488281 0.484375 C 12.46875 1.757812 5.3125 69.652344 48.894531 81.496094 L 105.742188 101.5625 L 172.609375 450.15625 C 180.601562 491.878906 193.867188 529.621094 212.355469 562.101562 C 239.558594 609.9375 286.808594 645.238281 345.082031 645.238281 L 634.496094 645.238281 C 686.714844 646.1875 686.714844 562.632812 634.496094 563.589844 L 345.089844 563.589844 C 303.890625 558.335938 286.808594 537.589844 271.699219 507.164062 L 653.695312 507.164062 C 688.75 507.164062 708.316406 476.054688 716.949219 440.074219 L 800.523438 155.859375 C 804.980469 109.144531 780.222656 99.914062 736.894531 99.914062 L 188.09375 100.332031 L 173.363281 55.261719 C 169.382812 41.839844 159.203125 31.480469 146.425781 27.878906 Z M 57.488281 0.484375 " fill-opacity="1" fill-rule="nonzero"/></g><path fill="#808080" d="M 611.601562 686.847656 C 577.445312 686.847656 549.722656 714.617188 549.722656 748.800781 C 549.722656 783.03125 577.445312 810.789062 611.601562 810.789062 C 645.796875 810.789062 673.519531 783.03125 673.519531 748.800781 C 673.519531 714.617188 645.796875 686.847656 611.601562 686.847656 Z M 364.820312 686.847656 C 330.625 686.847656 302.882812 714.617188 302.882812 748.800781 C 302.882812 783.03125 330.625 810.789062 364.820312 810.789062 C 399.019531 810.789062 426.699219 783.03125 426.699219 748.800781 C 426.699219 714.617188 399.019531 686.847656 364.820312 686.847656 Z M 364.820312 686.847656 " fill-opacity="1" fill-rule="nonzero"/></svg>